<svg width="193" height="45" viewBox="0 0 193 45" fill="none" xmlns="http://www.w3.org/2000/svg">
<path fill-rule="evenodd" clip-rule="evenodd" d="M122.377 44.8951H123.122V40.5105H122.377V44.8951ZM133.98 43.6159C133.848 43.6162 133.719 43.6556 133.61 43.7291C133.5 43.8025 133.415 43.9068 133.365 44.0287C133.315 44.1506 133.302 44.2846 133.328 44.4139C133.354 44.5432 133.417 44.6618 133.511 44.755C133.604 44.8481 133.723 44.9114 133.852 44.9371C133.981 44.9627 134.115 44.9494 134.237 44.8988C134.359 44.8483 134.463 44.7628 134.536 44.6532C134.609 44.5436 134.648 44.4147 134.648 44.2828C134.648 44.1058 134.577 43.9362 134.452 43.8112C134.327 43.6861 134.157 43.6159 133.98 43.6159ZM127.557 40.9236C127.428 40.7555 127.255 40.6262 127.058 40.5498C126.826 40.4529 126.578 40.4044 126.327 40.4075C126.051 40.3951 125.777 40.4552 125.531 40.582C125.285 40.7087 125.077 40.8976 124.928 41.1298V40.5082H124.256V44.8928H125.002V42.4998C124.977 42.2954 124.995 42.0881 125.054 41.8911C125.114 41.694 125.214 41.5115 125.348 41.3551C125.574 41.1557 125.867 41.0481 126.169 41.0536C126.352 41.0493 126.532 41.0959 126.689 41.1882C126.83 41.2695 126.938 41.3962 126.997 41.5475C127.065 41.7674 127.094 41.9975 127.084 42.2275V44.8951H127.829V42.1982C127.836 41.9565 127.822 41.7145 127.788 41.4751C127.75 41.2779 127.672 41.0907 127.557 40.9259V40.9236ZM131.47 44.1128C131.268 44.2938 131.005 44.3895 130.734 44.3798C130.565 44.3848 130.398 44.3513 130.244 44.2818C130.091 44.2124 129.955 44.1088 129.848 43.979C129.59 43.6029 129.47 43.1489 129.508 42.6944C129.47 42.2411 129.595 41.7891 129.861 41.4198C129.973 41.2883 130.114 41.1838 130.272 41.1141C130.431 41.0443 130.602 41.011 130.775 41.0167C131.008 41.0109 131.234 41.0903 131.412 41.2398C131.602 41.4161 131.731 41.6496 131.778 41.9051L132.502 41.7936C132.441 41.3911 132.233 41.0255 131.918 40.7667C131.581 40.5149 131.167 40.3872 130.747 40.4051C130.38 40.402 130.018 40.4937 129.697 40.6713C129.374 40.8494 129.121 41.131 128.979 41.4705C128.814 41.8638 128.733 42.2873 128.742 42.7136C128.701 43.3258 128.898 43.9302 129.291 44.4013C129.477 44.5973 129.702 44.7513 129.953 44.8528C130.203 44.9543 130.472 45.001 130.742 44.9898C131.186 45.0026 131.62 44.8502 131.958 44.5621C132.3 44.2556 132.519 43.835 132.573 43.379L131.841 43.2844C131.818 43.5962 131.687 43.8902 131.47 44.1151V44.1128ZM131.657 25.3136C131.269 26.9814 130.328 28.4688 128.987 29.5342C127.646 30.5996 125.985 31.1804 124.272 31.1821V39.269C131.948 38.9828 137.256 33.8298 138.404 28.8913C139.05 24.8144 140.628 21.0905 146.295 20.1598C146.554 20.1006 146.819 20.0765 147.084 20.0882V11.7867H146.288C138.396 12.1444 133.016 17.9413 131.657 25.3136ZM124.914 12.2167L118.672 24.0967L113.503 12.1444H105.111L114.006 32.5421L106.617 44.9951H115.369L132.873 12.2167H124.91H124.914ZM65.5162 12.3598C63.6871 12.3735 61.8804 12.7633 60.2085 13.5051V3.48514H52.5277V25.8144C52.7431 33.329 58.5539 38.9836 65.5123 38.9836C68.9895 38.9481 72.3103 37.5335 74.7449 35.0507C77.1795 32.5679 78.5288 29.22 78.4962 25.7428V25.6713C78.5197 22.1901 77.1696 18.8401 74.7389 16.3479C72.3083 13.8558 68.993 12.4225 65.5123 12.359L65.5162 12.3598ZM65.8031 31.039C65.1048 31.0568 64.4099 30.935 63.7593 30.6807C63.1086 30.4264 62.5153 30.0448 62.0141 29.5581C61.5129 29.0715 61.114 28.4897 60.8406 27.8468C60.5673 27.2039 60.4251 26.5129 60.4223 25.8144C60.4947 22.9513 61.8577 20.1605 65.73 20.1605C67.159 20.2047 68.514 20.8058 69.5057 21.8354C70.4974 22.8651 71.0472 24.2417 71.0377 25.6713C71.0539 26.3697 70.9304 27.0644 70.6745 27.7145C70.4186 28.3646 70.0354 28.957 69.5475 29.457C69.0595 29.957 68.4766 30.3544 67.833 30.6261C67.1893 30.8978 66.4979 31.0382 65.7993 31.039H65.8031ZM99.3039 28.8205C98.6673 29.9212 97.7519 30.8346 96.65 31.469C95.7777 31.8992 94.816 32.117 93.8434 32.1046C92.8708 32.0922 91.9149 31.8499 91.0539 31.3975C90.8393 31.2544 90.9823 31.1828 91.0539 31.1113L92.1308 30.4675L106.765 21.6644C106.335 19.159 101.242 11.1436 92.5616 12.1451C82.16 13.2905 80.1508 22.3082 80.1508 25.9582C80.1508 30.1805 83.4508 39.2698 94.0677 39.2698C103.322 39.1982 106.908 30.5382 106.908 28.8205H99.3046H99.3039ZM90.1185 20.3028C91.1092 19.6052 92.2826 19.213 93.4937 19.1749C94.7048 19.1367 95.9005 19.4543 96.9331 20.0882C96.0723 20.589 87.4647 25.8136 87.4647 25.8136C87.3774 24.7421 87.5773 23.6667 88.0438 22.6981C88.5102 21.7295 89.2264 20.9027 90.1185 20.3028ZM34.5224 9.35361C34.9501 9.29405 35.3821 9.27012 35.8139 9.28207V0.0512975C35.4106 -0.0203544 34.9979 -0.0203544 34.5947 0.0512975C23.4031 0.979759 14.58 8.85283 12.7139 19.5882C11.5662 26.3151 6.61619 30.7528 0.733887 30.3944V39.9136C14.2923 40.3428 20.3185 29.3928 21.4662 23.3098C22.5416 17.2259 25.9139 11.2144 34.5224 9.35361ZM38.1808 12.2882C34.7331 12.1664 31.3777 13.4161 28.8497 15.7635C26.3217 18.111 24.8273 21.3648 24.6939 24.8121V25.7421C25.0523 33.3998 30.7916 39.0544 37.75 39.0544C41.2343 39.0025 44.5563 37.573 46.9894 35.0784C49.4225 32.5839 50.7688 29.2273 50.7339 25.7428C50.8483 22.2954 49.5912 18.9432 47.2381 16.4211C44.885 13.899 41.6279 12.4128 38.1808 12.2882ZM38.1085 31.1105C37.4118 31.1221 36.7197 30.996 36.0719 30.7395C35.424 30.483 34.8332 30.101 34.3334 29.6156C33.8335 29.1302 33.4344 28.5508 33.159 27.9108C32.8836 27.2708 32.7373 26.5826 32.7285 25.8859C32.7285 22.9513 34.5931 20.1605 38.0362 20.1605C41.19 20.1605 43.3439 23.0951 43.3439 25.7428C43.3602 26.4411 43.2369 27.1355 42.9812 27.7854C42.7255 28.4353 42.3426 29.0277 41.855 29.5276C41.3673 30.0276 40.7847 30.4252 40.1414 30.697C39.4981 30.9688 38.8069 31.1094 38.1085 31.1105ZM171.156 18.599C171.16 17.0919 170.717 15.6175 169.883 14.3625C169.049 13.1074 167.861 12.1281 166.469 11.5485C165.078 10.9689 163.546 10.8151 162.068 11.1066C160.589 11.3981 159.23 12.1218 158.163 13.186C157.096 14.2502 156.369 15.6071 156.073 17.0849C155.778 18.5627 155.927 20.0949 156.503 21.4877C157.079 22.8804 158.055 24.071 159.308 24.9087C160.561 25.7464 162.034 26.1936 163.541 26.1936C164.54 26.1951 165.529 25.9999 166.452 25.619C167.375 25.2381 168.215 24.6791 168.922 23.9738C169.629 23.2686 170.19 22.4309 170.574 21.5087C170.957 20.5865 171.155 19.5977 171.156 18.599ZM185.293 11.0044C183.792 11.0085 182.326 11.4574 181.079 12.2944C179.833 13.1314 178.863 14.3189 178.291 15.707C177.72 17.0951 177.572 18.6215 177.868 20.0933C178.163 21.5652 178.888 22.9164 179.951 23.9765C181.014 25.0365 182.367 25.7578 183.84 26.0492C185.312 26.3405 186.838 26.1889 188.225 25.6135C189.611 25.0381 190.796 24.0646 191.63 22.8162C192.464 21.5677 192.908 20.1002 192.908 18.599C192.907 17.6002 192.709 16.6115 192.326 15.6893C191.943 14.7671 191.381 13.9294 190.674 13.2241C189.967 12.5189 189.128 11.9599 188.204 11.579C187.281 11.1981 186.292 11.0029 185.293 11.0044ZM174.418 15.3444C175.92 15.3403 177.386 14.8914 178.632 14.0544C179.878 13.2174 180.849 12.0298 181.42 10.6417C181.992 9.25364 182.139 7.72727 181.844 6.25543C181.548 4.78359 180.824 3.43231 179.761 2.37226C178.698 1.31221 177.344 0.590949 175.872 0.299589C174.399 0.00822831 172.873 0.159834 171.487 0.735258C170.1 1.31068 168.915 2.28411 168.082 3.53258C167.248 4.78106 166.803 6.24857 166.803 7.74976C166.804 8.74853 167.002 9.7373 167.385 10.6596C167.769 11.5819 168.33 12.4196 169.037 13.1248C169.745 13.8301 170.584 14.3891 171.507 14.77C172.43 15.1508 173.42 15.346 174.418 15.3444ZM174.418 21.8536C172.917 21.8577 171.451 22.3066 170.205 23.1436C168.959 23.9806 167.988 25.1682 167.417 26.5562C166.845 27.9443 166.698 29.4707 166.993 30.9425C167.288 32.4144 168.013 33.7657 169.076 34.8257C170.139 35.8858 171.493 36.607 172.965 36.8984C174.438 37.1898 175.964 37.0382 177.35 36.4627C178.737 35.8873 179.922 34.9139 180.755 33.6654C181.589 32.4169 182.034 30.9494 182.034 29.4482C182.033 28.4495 181.835 27.4608 181.451 26.5385C181.068 25.6163 180.507 24.7786 179.799 24.0734C179.092 23.3681 178.253 22.8091 177.33 22.4282C176.407 22.0473 175.417 21.8521 174.418 21.8536Z" fill="#48A548"/>
</svg>
